<svg width="124" height="24" viewBox="0 0 124 24" fill="none" xmlns="http://www.w3.org/2000/svg">
<path d="M0 23.68V1.28H8.98877C10.6095 1.28 12.0703 1.54667 13.3712 2.08C14.6934 2.61333 15.8237 3.38133 16.762 4.384C17.7003 5.38667 18.4254 6.57067 18.9372 7.936C19.449 9.30133 19.7049 10.816 19.7049 12.48C19.7049 14.144 19.449 15.6693 18.9372 17.056C18.4254 18.4213 17.7003 19.6053 16.762 20.608C15.845 21.5893 14.7254 22.3467 13.4032 22.88C12.081 23.4133 10.6095 23.68 8.98877 23.68H0ZM4.12652 20.448L3.83862 19.84H8.82883C9.87379 19.84 10.8121 19.6693 11.6438 19.328C12.4755 18.9867 13.1686 18.5067 13.7231 17.888C14.2989 17.248 14.736 16.4693 15.0346 15.552C15.3545 14.6347 15.5144 13.6107 15.5144 12.48C15.5144 11.3493 15.3545 10.336 15.0346 9.44C14.736 8.52267 14.2989 7.744 13.7231 7.104C13.1473 6.464 12.4435 5.97333 11.6118 5.632C10.8015 5.29067 9.87379 5.12 8.82883 5.12H3.74266L4.12652 4.576V20.448Z" fill="black"/>
<path d="M29.5529 24C27.8682 24 26.3647 23.6267 25.0425 22.88C23.7203 22.112 22.6754 21.0667 21.9076 19.744C21.1612 18.4213 20.788 16.9173 20.788 15.232C20.788 13.5467 21.1612 12.0427 21.9076 10.72C22.6754 9.39733 23.7203 8.36267 25.0425 7.616C26.3647 6.848 27.8682 6.464 29.5529 6.464C31.2163 6.464 32.7091 6.848 34.0313 7.616C35.3535 8.36267 36.3878 9.39733 37.1342 10.72C37.9019 12.0427 38.2858 13.5467 38.2858 15.232C38.2858 16.9173 37.9019 18.4213 37.1342 19.744C36.3878 21.0667 35.3535 22.112 34.0313 22.88C32.7091 23.6267 31.2163 24 29.5529 24ZM29.5529 20.512C30.4699 20.512 31.2909 20.288 32.016 19.84C32.7411 19.3707 33.3062 18.7413 33.7114 17.952C34.1379 17.1413 34.3405 16.2347 34.3192 15.232C34.3405 14.208 34.1379 13.3013 33.7114 12.512C33.3062 11.7013 32.7411 11.072 32.016 10.624C31.2909 10.176 30.4699 9.952 29.5529 9.952C28.6359 9.952 27.8042 10.1867 27.0578 10.656C26.3327 11.104 25.7676 11.7333 25.3624 12.544C24.9572 13.3333 24.7546 14.2293 24.7546 15.232C24.7546 16.2347 24.9572 17.1413 25.3624 17.952C25.7676 18.7413 26.3327 19.3707 27.0578 19.84C27.8042 20.288 28.6359 20.512 29.5529 20.512Z" fill="black"/>
<path d="M47.8838 24C46.1991 24 44.6956 23.6267 43.3734 22.88C42.0512 22.112 41.0063 21.0667 40.2386 19.744C39.4922 18.4213 39.119 16.9173 39.119 15.232C39.119 13.5467 39.4922 12.0427 40.2386 10.72C41.0063 9.39733 42.0512 8.36267 43.3734 7.616C44.6956 6.848 46.1991 6.464 47.8838 6.464C49.5472 6.464 51.04 6.848 52.3622 7.616C53.6844 8.36267 54.7187 9.39733 55.4651 10.72C56.2328 12.0427 56.6167 13.5467 56.6167 15.232C56.6167 16.9173 56.2328 18.4213 55.4651 19.744C54.7187 21.0667 53.6844 22.112 52.3622 22.88C51.04 23.6267 49.5472 24 47.8838 24ZM47.8838 20.512C48.8008 20.512 49.6219 20.288 50.3469 19.84C51.072 19.3707 51.6371 18.7413 52.0423 17.952C52.4688 17.1413 52.6714 16.2347 52.6501 15.232C52.6714 14.208 52.4688 13.3013 52.0423 12.512C51.6371 11.7013 51.072 11.072 50.3469 10.624C49.6219 10.176 48.8008 9.952 47.8838 9.952C46.9668 9.952 46.1351 10.1867 45.3887 10.656C44.6636 11.104 44.0985 11.7333 43.6933 12.544C43.2881 13.3333 43.0855 14.2293 43.0855 15.232C43.0855 16.2347 43.2881 17.1413 43.6933 17.952C44.0985 18.7413 44.6636 19.3707 45.3887 19.84C46.1351 20.288 46.9668 20.512 47.8838 20.512Z" fill="black"/>
<path d="M59.4802 23.68V5.28C59.4802 4.27733 59.7041 3.38133 60.1519 2.592C60.5998 1.78133 61.2182 1.152 62.0072 0.703999C62.7963 0.234666 63.7026 0 64.7263 0C65.4513 0 66.1231 0.128 66.7415 0.383999C67.3813 0.639999 67.9038 0.981333 68.309 1.408L67.0934 4.32C66.8162 4.10667 66.5176 3.936 66.1977 3.808C65.8992 3.65867 65.6113 3.584 65.3341 3.584C64.9075 3.584 64.545 3.65867 64.2464 3.808C63.9692 3.936 63.756 4.13867 63.6067 4.416C63.4787 4.69333 63.4147 5.03467 63.4147 5.44V23.68H61.4315C61.0689 23.68 60.717 23.68 60.3758 23.68C60.0559 23.68 59.7574 23.68 59.4802 23.68ZM56.8571 10.624V7.168H67.2214V10.624H56.8571Z" fill="black"/>
<path d="M75.955 24C74.2703 24 72.7668 23.6267 71.4446 22.88C70.1224 22.112 69.0775 21.0667 68.3097 19.744C67.5633 18.4213 67.1901 16.9173 67.1901 15.232C67.1901 13.5467 67.5633 12.0427 68.3097 10.72C69.0775 9.39733 70.1224 8.36267 71.4446 7.616C72.7668 6.848 74.2703 6.464 75.955 6.464C77.6184 6.464 79.1112 6.848 80.4334 7.616C81.7556 8.36267 82.7899 9.39733 83.5363 10.72C84.304 12.0427 84.6879 13.5467 84.6879 15.232C84.6879 16.9173 84.304 18.4213 83.5363 19.744C82.7899 21.0667 81.7556 22.112 80.4334 22.88C79.1112 23.6267 77.6184 24 75.955 24ZM75.955 20.512C76.872 20.512 77.693 20.288 78.4181 19.84C79.1432 19.3707 79.7083 18.7413 80.1135 17.952C80.54 17.1413 80.7426 16.2347 80.7213 15.232C80.7426 14.208 80.54 13.3013 80.1135 12.512C79.7083 11.7013 79.1432 11.072 78.4181 10.624C77.693 10.176 76.872 9.952 75.955 9.952C75.038 9.952 74.2063 10.1867 73.4599 10.656C72.7348 11.104 72.1697 11.7333 71.7645 12.544C71.3593 13.3333 71.1567 14.2293 71.1567 15.232C71.1567 16.2347 71.3593 17.1413 71.7645 17.952C72.1697 18.7413 72.7348 19.3707 73.4599 19.84C74.2063 20.288 75.038 20.512 75.955 20.512Z" fill="black"/>
<path d="M86.6087 23.68V6.816H90.4473L90.5113 12.192L89.9995 10.976C90.234 10.1227 90.6392 9.35467 91.215 8.672C91.7908 7.98933 92.4519 7.456 93.1983 7.072C93.966 6.66667 94.7551 6.464 95.5655 6.464C95.928 6.464 96.2692 6.496 96.5891 6.56C96.9303 6.624 97.2075 6.69867 97.4208 6.784L96.3972 11.072C96.1413 10.944 95.8427 10.848 95.5015 10.784C95.1816 10.6987 94.851 10.656 94.5098 10.656C93.9554 10.656 93.4329 10.7627 92.9424 10.976C92.4732 11.168 92.0574 11.4453 91.6948 11.808C91.3536 12.1707 91.0764 12.5973 90.8631 13.088C90.6499 13.5573 90.5433 14.08 90.5433 14.656V23.68H86.6087Z" fill="black"/>
<path d="M98.4092 23.68V6.816H102.248L102.312 10.24L101.672 10.496C101.864 9.94133 102.152 9.42933 102.536 8.96C102.92 8.46933 103.378 8.04267 103.911 7.68C104.444 7.31733 105.009 7.04 105.607 6.848C106.204 6.63467 106.822 6.528 107.462 6.528C108.379 6.528 109.189 6.67733 109.893 6.976C110.597 7.27467 111.183 7.73333 111.652 8.352C112.143 8.97067 112.516 9.76 112.772 10.72L112.164 10.592L112.388 10.08C112.644 9.568 112.985 9.09867 113.412 8.672C113.838 8.24533 114.318 7.872 114.851 7.552C115.384 7.21067 115.939 6.95467 116.515 6.784C117.112 6.61333 117.688 6.528 118.242 6.528C119.522 6.528 120.588 6.784 121.441 7.296C122.294 7.808 122.934 8.58667 123.36 9.632C123.787 10.6773 124 11.968 124 13.504V23.68H120.065V13.76C120.065 12.48 119.81 11.5307 119.298 10.912C118.807 10.2933 118.039 9.984 116.995 9.984C116.44 9.984 115.928 10.08 115.459 10.272C114.99 10.4427 114.574 10.6987 114.212 11.04C113.87 11.36 113.604 11.744 113.412 12.192C113.22 12.6187 113.124 13.0987 113.124 13.632V23.68H109.189V13.728C109.189 12.512 108.923 11.584 108.39 10.944C107.878 10.304 107.142 9.984 106.182 9.984C105.628 9.984 105.116 10.08 104.647 10.272C104.199 10.4427 103.794 10.6987 103.431 11.04C103.09 11.36 102.824 11.7333 102.632 12.16C102.44 12.5867 102.344 13.056 102.344 13.568V23.68H98.4092Z" fill="black"/>
</svg>
